# xmcd
#
# Track frame offsets:
#	150
#	12060
#	26650
#	41032
#	55142
#	69657
#	81807
#	95147
#	110062
#	122742
#	136047
#	149422
#	160665
#	173962
#	188155
#	202705
#	218430
#	232502
#	246945
#	262810
#	276117
#	289470
#	303035
#	318310
#
# Disc length: 4422 seconds
#
# Revision: 0
# Processed by: cddbd v1.5PL3 Copyright (c) Steve Scherf et al.
# Submitted via: audiograbber 1.81.03
#
DISCID=49114418
DTITLE=Tampa Red - Complete Recorded Works in Chronological Order Vol. 4
DYEAR=1930
DGENRE=Blues
TTITLE0=You Rascal You No. 2
TTITLE1=You Rascal You No. 1
TTITLE2=Have You Ever Been Worried in Mind Part 1
TTITLE3=Have You Ever Been Worried in Mind Part 2
TTITLE4=You baby Can't Get Enough
TTITLE5=Keep Your Yes Ma'am Clean
TTITLE6=You Rascal You
TTITLE7=She Can Love so Good
TTITLE8=Bear Cat's Kittens
TTITLE9=Unhappy Blues
TTITLE10=Jealous Hearted Mama Blues
TTITLE11=They Call it Boogie Woogie
TTITLE12=Toogaloo Blues
TTITLE13=Jinx Doctor Blues
TTITLE14=Boogie Woogie Dance
TTITLE15=Bumble Bee Blues
TTITLE16=New Strangers Blues
TTITLE17=Georgia Hound Blues
TTITLE18=Things 'Bout Coming My Way
TTITLE19=Cotton Seed Blues
TTITLE20=Stop and Listen Blues
TTITLE21=Down in Spirit Blues
TTITLE22=Sad News Blues
TTITLE23=Depression Blues
EXTD=DOCD-5076   14 July 1930 to 24 October 1931
EXTT0=
EXTT1=
EXTT2=
EXTT3=
EXTT4=
EXTT5=
EXTT6=
EXTT7=
EXTT8=
EXTT9=
EXTT10=
EXTT11=
EXTT12=
EXTT13=
EXTT14=
EXTT15=
EXTT16=
EXTT17=
EXTT18=
EXTT19=
EXTT20=
EXTT21=
EXTT22=
EXTT23=
PLAYORDER=
